<svg id="Layer_5" enable-background="new 0 0 64 64" height="512" viewBox="0 0 64 64" width="512" xmlns="http://www.w3.org/2000/svg"><circle cx="51" cy="51" fill="#ff826e" r="11"/><path d="m30 51v8h-28v-16h14 14z" fill="#e6e9ed"/><g fill="#fcd770"><circle cx="24" cy="51" r="2"/><circle cx="16" cy="51" r="2"/><circle cx="8" cy="51" r="2"/></g><path d="m10 2-8 8v12 14h14 14v-14-2-18z" fill="#e6e9ed"/><path d="m6 26h20v6h-20z" fill="#4fc1e9"/><path d="m26 6v8h-20v-4h4v-4z" fill="#ffeaa7"/><path d="m10 6v4h-4-4l8-8z" fill="#fcd770"/><path d="m36 12v8 10h18v-18z" fill="#f0d0b4"/><path d="m54.76 3.24c.79-.79 1.87-1.24 3-1.24 1.17 0 2.23.48 3 1.24.76.77 1.24 1.83 1.24 3 0 1.13-.45 2.21-1.24 3l-1.76 1.76-3-3-3-3z" fill="#aab2bd"/><path d="m50 20-5.74 1.91c-.17.06-.35.09-.54.09-.95 0-1.72-.77-1.72-1.72 0-.19.03-.37.09-.54l1.91-5.74 3 3z" fill="#aab2bd"/><path d="m59 11-5 5-4 4-3-3 9-9z" fill="#ff826e"/><path d="m56 8-9 9-3-3 2-2 7-7z" fill="#b4dd7f"/><path d="m51 39c-6.28 0-11.438 4.85-11.949 11h-8.051v-8h-14v-5h14v-16h4v10h20v-14.586l6.465-6.465c.99-.99 1.535-2.306 1.535-3.707 0-2.89-2.352-5.242-5.242-5.242-1.4 0-2.717.545-3.707 1.535l-8.465 8.465h-10.586v8h-4v-18h-21.414l-8.586 8.586v27.414h14v5h-14v18h30v-8h8.051c.511 6.15 5.669 11 11.949 11 6.617 0 12-5.383 12-12s-5.383-12-12-12zm-5.586-25 7.586-7.586 1.586 1.586-7.586 7.586zm-.977 1.851 3.712 3.712-4.198 1.399c-.462.156-.951-.209-.951-.683 0-.076.013-.156.036-.228zm5.563 2.735-1.586-1.586 7.586-7.586 1.586 1.586zm7.758-15.586c1.788 0 3.242 1.454 3.242 3.242 0 .866-.337 1.681-.949 2.293l-1.051 1.051-4.586-4.586 1.051-1.051c.612-.612 1.427-.949 2.293-.949zm-20.758 10h6.586l-.46.46-1.988 5.962c-.091.278-.138.566-.138.857 0 1.5 1.221 2.721 2.721 2.721.291 0 .579-.047.86-.14l5.959-1.986 2.46-2.46v10.586h-16zm-32.586-4 4.586-4.586v4.586zm2.586 2h4v-4h14v6h-18zm-4 0h2v4h22v-10h-16v-2h18v32h-26zm26 47h-26v-14h26zm22 3c-5.514 0-10-4.486-10-10s4.486-10 10-10 10 4.486 10 10-4.486 10-10 10z"/><path d="m49 55.586-3.293-3.293-1.414 1.414 4.707 4.707 9.707-9.707-1.414-1.414z"/><path d="m8 54c1.654 0 3-1.346 3-3s-1.346-3-3-3-3 1.346-3 3 1.346 3 3 3zm0-4c.552 0 1 .448 1 1s-.448 1-1 1-1-.448-1-1 .448-1 1-1z"/><path d="m16 54c1.654 0 3-1.346 3-3s-1.346-3-3-3-3 1.346-3 3 1.346 3 3 3zm0-4c.552 0 1 .448 1 1s-.448 1-1 1-1-.448-1-1 .448-1 1-1z"/><path d="m24 54c1.654 0 3-1.346 3-3s-1.346-3-3-3-3 1.346-3 3 1.346 3 3 3zm0-4c.552 0 1 .448 1 1s-.448 1-1 1-1-.448-1-1 .448-1 1-1z"/><path d="m39 25h12v2h-12z"/><path d="m5 17h2v2h-2z"/><path d="m9 17h18v2h-18z"/><path d="m5 21h22v2h-22z"/><path d="m5 33h22v-8h-22zm2-6h18v4h-18z"/></svg>