<svg height="496pt" viewBox="0 0 496 496" width="496pt" xmlns="http://www.w3.org/2000/svg"><path d="m336 214.160156v17.839844h-176v-17.839844c0-13.359375 8.238281-25.28125 20.800781-29.921875l43.199219-16.238281 24 32 24-32 43.199219 16.238281c12.5625 4.640625 20.800781 16.5625 20.800781 29.921875zm0 0" fill="#ff826e"/><path d="m488 382.160156v17.839844h-176v-17.839844c0-13.359375 8.238281-25.28125 20.800781-29.921875l43.199219-16.238281c0 6.640625 2.71875 12.640625 7.039062 16.960938 4.320313 4.320312 10.320313 7.039062 16.960938 7.039062 13.28125 0 24-10.71875 24-24l43.199219 16.238281c12.5625 4.640625 20.800781 16.5625 20.800781 29.921875zm0 0" fill="#e6e9ed"/><path d="m184 382.160156v17.839844h-176v-17.839844c0-13.359375 8.238281-25.28125 20.800781-29.921875l43.199219-16.238281c0 6.640625 2.71875 12.640625 7.039062 16.960938 4.320313 4.320312 10.320313 7.039062 16.960938 7.039062 13.28125 0 24-10.71875 24-24l43.199219 16.238281c12.5625 4.640625 20.800781 16.5625 20.800781 29.921875zm0 0" fill="#e6e9ed"/><path d="m360 248c-6.640625 0-12.640625 2.71875-16.960938 7.039062-4.320312 4.320313-7.039062 10.320313-7.039062 16.960938v-32c0-17.679688 7.199219-33.679688 18.71875-45.28125 11.601562-11.519531 27.601562-18.71875 45.28125-18.71875 35.359375 0 64 28.640625 64 64v32c0-6.640625-2.71875-12.640625-7.039062-16.960938-4.320313-4.320312-10.320313-7.039062-16.960938-7.039062-10.238281 0-20.078125-4.078125-27.28125-11.28125l-4.71875-4.71875-4 2.71875c-13.039062 8.640625-28.320312 13.28125-44 13.28125zm0 0" fill="#cf9e76"/><path d="m56 248c-13.28125 0-24 10.71875-24 24v-32c0-17.679688 7.199219-33.679688 18.71875-45.28125 11.601562-11.519531 27.601562-18.71875 45.28125-18.71875 35.359375 0 64 28.640625 64 64v32c0-6.640625-2.71875-12.640625-7.039062-16.960938-4.320313-4.320312-10.320313-7.039062-16.960938-7.039062zm0 0" fill="#cf9e76"/><g fill="#f0d0b4"><path d="m424 336c0 13.28125-10.71875 24-24 24-6.640625 0-12.640625-2.71875-16.960938-7.039062-4.320312-4.320313-7.039062-10.320313-7.039062-16.960938v-16c6.640625 5.039062 14.960938 8 24 8 4.960938 0 9.679688-.878906 24-8zm0 0"/><path d="m464 272c0 13.28125-10.71875 24-24 24l-.800781-.078125c.5625-2.5625.800781-5.203125.800781-7.921875v-40c6.640625 0 12.640625 2.71875 16.960938 7.039062 4.320312 4.320313 7.039062 10.320313 7.039062 16.960938zm0 0"/><path d="m440 248v40c0 2.71875-.238281 5.359375-.800781 7.921875-1.519531 7.839844-5.4375 14.878906-10.878907 20.398437-1.359374 1.359376-2.800781 2.558594-4.320312 3.679688-14.320312 7.121094-19.039062 8-24 8-9.039062 0-17.359375-2.960938-24-8-7.679688-5.839844-13.28125-14.320312-15.199219-24.078125-.5625-2.5625-.800781-5.203125-.800781-7.921875v-40c15.679688 0 30.960938-4.640625 44-13.28125l4-2.71875 4.71875 4.71875c7.203125 7.203125 17.042969 11.28125 27.28125 11.28125zm0 0"/><path d="m360 288c0 2.71875.238281 5.359375.800781 7.921875l-.800781.078125c-6.640625 0-12.640625-2.71875-16.960938-7.039062-4.320312-4.320313-7.039062-10.320313-7.039062-16.960938s2.71875-12.640625 7.039062-16.960938c4.320313-4.320312 10.320313-7.039062 16.960938-7.039062zm0 0"/><path d="m96 328c4.960938 0 9.679688-.878906 24-8v16c0 13.28125-10.71875 24-24 24-6.640625 0-12.640625-2.71875-16.960938-7.039062-4.320312-4.320313-7.039062-10.320313-7.039062-16.960938v-16c6.640625 5.039062 14.960938 8 24 8zm0 0"/><path d="m160 272c0 13.28125-10.71875 24-24 24l-.800781-.078125c.5625-2.5625.800781-5.203125.800781-7.921875v-40c6.640625 0 12.640625 2.71875 16.960938 7.039062 4.320312 4.320313 7.039062 10.320313 7.039062 16.960938zm0 0"/><path d="m136 248v40c0 2.71875-.238281 5.359375-.800781 7.921875-1.519531 7.839844-5.4375 14.878906-10.878907 20.398437-1.359374 1.359376-2.800781 2.558594-4.320312 3.679688-14.320312 7.121094-19.039062 8-24 8-9.039062 0-17.359375-2.960938-24-8-7.679688-5.839844-13.28125-14.320312-15.199219-24.078125-.5625-2.5625-.800781-5.203125-.800781-7.921875v-40zm0 0"/><path d="m56 248v40c0 2.71875.238281 5.359375.800781 7.921875l-.800781.078125c-6.640625 0-12.640625-2.71875-16.960938-7.039062-4.320312-4.320313-7.039062-10.320313-7.039062-16.960938 0-13.28125 10.71875-24 24-24zm0 0"/><path d="m248 160c4.960938 0 9.679688-.878906 24-8v16l-24 32-24-32v-16c6.640625 5.039062 14.960938 8 24 8zm0 0"/><path d="m312 104c0 13.28125-10.71875 24-24 24l-.800781-.078125c.5625-2.5625.800781-5.203125.800781-7.921875v-40c6.640625 0 12.640625 2.71875 16.960938 7.039062 4.320312 4.320313 7.039062 10.320313 7.039062 16.960938zm0 0"/><path d="m288 80v40c0 2.71875-.238281 5.359375-.800781 7.921875-1.519531 7.839844-5.4375 14.878906-10.878907 20.398437-1.359374 1.359376-2.800781 2.558594-4.320312 3.679688-14.320312 7.121094-19.039062 8-24 8-9.039062 0-17.359375-2.960938-24-8-7.679688-5.839844-13.28125-14.320312-15.199219-24.078125-.5625-2.5625-.800781-5.203125-.800781-7.921875v-40c15.679688 0 30.960938-4.640625 44-13.28125l4-2.71875 4.71875 4.71875c7.203125 7.203125 17.042969 11.28125 27.28125 11.28125zm0 0"/><path d="m208 80v40c0 2.71875.238281 5.359375.800781 7.921875l-.800781.078125c-6.640625 0-12.640625-2.71875-16.960938-7.039062-4.320312-4.320313-7.039062-10.320313-7.039062-16.960938s2.71875-12.640625 7.039062-16.960938c4.320313-4.320312 10.320313-7.039062 16.960938-7.039062zm0 0"/></g><path d="m296 288v32c0 4.398438-3.601562 8-8 8h-80c-4.398438 0-8-3.601562-8-8v-32c0-4.398438 3.601562-8 8-8h80c4.398438 0 8 3.601562 8 8zm0 0" fill="#fcd770"/><path d="m312 72v32c0-6.640625-2.71875-12.640625-7.039062-16.960938-4.320313-4.320312-10.320313-7.039062-16.960938-7.039062-10.238281 0-20.078125-4.078125-27.28125-11.28125l-4.71875-4.71875-4 2.71875c-13.039062 8.640625-28.320312 13.28125-44 13.28125-6.640625 0-12.640625 2.71875-16.960938 7.039062-4.320312 4.320313-7.039062 10.320313-7.039062 16.960938v-32c0-17.679688 7.199219-33.679688 18.71875-45.28125 11.601562-11.519531 27.601562-18.71875 45.28125-18.71875 35.359375 0 64 28.640625 64 64zm0 0" fill="#fcd770"/><path d="m480 472c0 8.835938-7.164062 16-16 16s-16-7.164062-16-16 7.164062-16 16-16 16 7.164062 16 16zm0 0" fill="#fcd770"/><path d="m352 472c0 8.835938-7.164062 16-16 16s-16-7.164062-16-16 7.164062-16 16-16 16 7.164062 16 16zm0 0" fill="#fcd770"/><path d="m264 472c0 8.835938-7.164062 16-16 16s-16-7.164062-16-16 7.164062-16 16-16 16 7.164062 16 16zm0 0" fill="#fcd770"/><path d="m176 472c0 8.835938-7.164062 16-16 16s-16-7.164062-16-16 7.164062-16 16-16 16 7.164062 16 16zm0 0" fill="#fcd770"/><path d="m48 472c0 8.835938-7.164062 16-16 16s-16-7.164062-16-16 7.164062-16 16-16 16 7.164062 16 16zm0 0" fill="#fcd770"/><path d="m496 408v-25.824219c0-16.582031-10.433594-31.632812-25.953125-37.457031l-38.046875-14.261719v-6.777343c6.054688-5.433594 10.71875-12.359376 13.398438-20.222657 15.074218-2.585937 26.601562-15.664062 26.601562-31.457031v-32c0-39.695312-32.296875-72-72-72-24.480469 0-46.113281 12.304688-59.128906 31.023438-4.167969-10.070313-12.261719-18.34375-22.824219-22.304688l-38.046875-14.261719v-6.777343c6.054688-5.433594 10.71875-12.359376 13.398438-20.222657 15.074218-2.585937 26.601562-15.664062 26.601562-31.457031v-32c0-39.695312-32.296875-72-72-72s-72 32.304688-72 72v32c0 15.792969 11.527344 28.871094 26.601562 31.457031 2.679688 7.855469 7.34375 14.78125 13.398438 20.222657v6.777343l-38.039062 14.269531c-10.5625 3.960938-18.664063 12.234376-22.832032 22.304688-13.015625-18.726562-34.648437-31.03125-59.128906-31.03125-39.703125 0-72 32.304688-72 72v32c0 15.792969 11.527344 28.871094 26.601562 31.457031 2.679688 7.855469 7.34375 14.78125 13.398438 20.222657v6.777343l-38.039062 14.261719c-15.527344 5.824219-25.960938 20.875-25.960938 37.457031v25.824219h88v16h-48c-8.824219 0-16 7.175781-16 16v9.472656c-9.289062 3.3125-16 12.113282-16 22.527344 0 13.230469 10.769531 24 24 24s24-10.769531 24-24c0-10.414062-6.710938-19.214844-16-22.527344v-9.472656h112v9.472656c-9.289062 3.3125-16 12.113282-16 22.527344 0 13.230469 10.769531 24 24 24s24-10.769531 24-24c0-10.414062-6.710938-19.214844-16-22.527344v-9.472656c0-8.824219-7.175781-16-16-16h-48v-16h88v-25.824219c0-16.582031-10.433594-31.632812-25.953125-37.457031l-38.046875-14.261719v-6.777343c6.054688-5.433594 10.71875-12.359376 13.398438-20.222657 15.074218-2.585937 26.601562-15.664062 26.601562-31.457031v-32h72v32h-32c-8.824219 0-16 7.175781-16 16v32c0 8.824219 7.175781 16 16 16h32v113.472656c-9.289062 3.3125-16 12.113282-16 22.527344 0 13.230469 10.769531 24 24 24s24-10.769531 24-24c0-10.414062-6.710938-19.214844-16-22.527344v-113.472656h32c8.824219 0 16-7.175781 16-16v-32c0-8.824219-7.175781-16-16-16h-32v-32h72v32c0 15.792969 11.527344 28.871094 26.601562 31.457031 2.679688 7.855469 7.34375 14.78125 13.398438 20.222657v6.777343l-38.039062 14.269531c-15.527344 5.816407-25.960938 20.867188-25.960938 37.449219v25.824219h88v16h-48c-8.824219 0-16 7.175781-16 16v9.472656c-9.289062 3.3125-16 12.113282-16 22.527344 0 13.230469 10.769531 24 24 24s24-10.769531 24-24c0-10.414062-6.710938-19.214844-16-22.527344v-9.472656h112v9.472656c-9.289062 3.3125-16 12.113282-16 22.527344 0 13.230469 10.769531 24 24 24s24-10.769531 24-24c0-10.414062-6.710938-19.214844-16-22.527344v-9.472656c0-8.824219-7.175781-16-16-16h-48v-16zm-464 72c-4.414062 0-8-3.59375-8-8s3.585938-8 8-8 8 3.59375 8 8-3.585938 8-8 8zm128 0c-4.414062 0-8-3.59375-8-8s3.585938-8 8-8 8 3.59375 8 8-3.585938 8-8 8zm-120-208c0-5.894531 3.238281-11 8-13.777344v27.546875c-4.761719-2.769531-8-7.875-8-13.769531zm136 110.175781v9.824219h-160v-9.824219c0-9.953125 6.257812-18.976562 15.574219-22.472656l34.425781-12.910156c4.457031 12.328125 16.160156 21.207031 30 21.207031s25.542969-8.878906 29.992188-21.207031l34.433593 12.910156c9.316407 3.496094 15.574219 12.519531 15.574219 22.472656zm-64-46.175781c0 8.824219-7.175781 16-16 16s-16-7.175781-16-16v-2.800781c5.015625 1.785156 10.382812 2.800781 16 2.800781s10.984375-1.023438 16-2.800781zm-16-16c-17.648438 0-32-14.351562-32-32v-32h64v32c0 17.648438-14.351562 32-32 32zm48-34.222656v-27.546875c4.761719 2.777343 8 7.882812 8 13.777343 0 5.894532-3.238281 10.992188-8 13.769532zm8-41.328125c-4.726562-2.753907-10.144531-4.449219-16-4.449219h-80c-5.855469 0-11.273438 1.695312-16 4.449219v-4.449219c0-30.878906 25.128906-56 56-56s56 25.121094 56 56zm96 235.550781c-4.414062 0-8-3.59375-8-8s3.585938-8 8-8 8 3.59375 8 8-3.585938 8-8 8zm40-160h-80v-32h80zm-40-168c-17.648438 0-32-14.351562-32-32v-32.566406c13.839844-1.273438 27.175781-5.617188 38.96875-13.152344l.0625.0625c6.777344 6.777344 15.59375 11.257812 24.96875 12.914062v32.742188c0 17.648438-14.351562 32-32 32zm48-34.222656v-27.546875c4.761719 2.777343 8 7.882812 8 13.777343 0 5.894532-3.238281 10.992188-8 13.769532zm-48-101.777344c30.871094 0 56 25.121094 56 56v4.449219c-4.726562-2.753907-10.144531-4.449219-16-4.449219-8.0625 0-15.953125-3.273438-21.65625-8.96875l-9.328125-9.328125-9.488281 6.328125c-11.742188 7.824219-25.414063 11.96875-39.527344 11.96875-5.855469 0-11.273438 1.695312-16 4.449219v-4.449219c0-30.878906 25.128906-56 56-56zm-56 88c0-5.894531 3.238281-11 8-13.777344v27.546875c-4.761719-2.769531-8-7.875-8-13.769531zm56 64c5.617188 0 10.984375-1.023438 16-2.800781v.136719l-16 21.335937-16-21.335937v-.136719c5.015625 1.777343 10.382812 2.800781 16 2.800781zm-80 56v-9.824219c0-9.953125 6.257812-18.976562 15.574219-22.472656l37.625-14.101563 26.800781 35.734376 26.800781-35.734376 37.625 14.109376c9.316407 3.488281 15.574219 12.511718 15.574219 22.464843v9.824219zm168 256c-4.414062 0-8-3.59375-8-8s3.585938-8 8-8 8 3.59375 8 8-3.585938 8-8 8zm128 0c-4.414062 0-8-3.59375-8-8s3.585938-8 8-8 8 3.59375 8 8-3.585938 8-8 8zm-64-160c-17.648438 0-32-14.351562-32-32v-32.566406c13.839844-1.273438 27.175781-5.617188 38.96875-13.152344l.0625.0625c6.777344 6.777344 15.59375 11.257812 24.96875 12.914062v32.742188c0 17.648438-14.351562 32-32 32zm48-34.222656v-27.546875c4.761719 2.777343 8 7.882812 8 13.777343 0 5.894532-3.238281 10.992188-8 13.769532zm-48-101.777344c30.871094 0 56 25.121094 56 56v4.449219c-4.726562-2.753907-10.144531-4.449219-16-4.449219-8.0625 0-15.953125-3.273438-21.65625-8.96875l-9.328125-9.328125-9.488281 6.328125c-11.742188 7.824219-25.414063 11.96875-39.527344 11.96875-5.855469 0-11.273438 1.695312-16 4.449219v-4.449219c0-30.878906 25.128906-56 56-56zm-56 88c0-5.894531 3.238281-11 8-13.777344v27.546875c-4.761719-2.769531-8-7.875-8-13.769531zm56 64c5.617188 0 10.984375-1.023438 16-2.800781v2.800781c0 8.824219-7.175781 16-16 16s-16-7.175781-16-16v-2.800781c5.015625 1.777343 10.382812 2.800781 16 2.800781zm-80 46.175781c0-9.953125 6.257812-18.976562 15.574219-22.472656l34.425781-12.910156c4.457031 12.328125 16.160156 21.207031 30 21.207031s25.542969-8.878906 29.992188-21.207031l34.433593 12.910156c9.316407 3.496094 15.574219 12.519531 15.574219 22.472656v9.824219h-160zm0 0"/></svg>